<svg version="1.1" xmlns="http://www.w3.org/2000/svg" xmlns:xlink="http://www.w3.org/1999/xlink" viewBox="0 0 144 72" fill="none" stroke="#808080">
<!-- By OpenMoji, CC BY-SA 4.0 -->
<!-- fork knife plate adapted from https://commons.wikimedia.org/wiki/File:OpenMoji-black_1F37D.svg -->
<!-- spoon adapted from https://commons.wikimedia.org/wiki/File:OpenMoji-black_1F944.svg -->
<!-- chopstick adapted from https://commons.wikimedia.org/wiki/File:OpenMoji-black_1F962.svg -->
<defs>
<g id="four" stroke-linecap="round" stroke-linejoin="round" stroke-miterlimit="10">
<g transform="scale(0.5) translate(16,8)" stroke-width="1.5">
<desc>fork</desc>
<path d="M11.4,16.7c0,0,0.1,4.2,0.1,8.1c0,3-0.9,4.8-2.2,5.6l0,0l0,28.4c0,1.1-0.9,2-2,2s-2-0.9-2-2l0.8-28.4l0,0C4.9,29.7,4,27.8,4,24.8c0-3.9,0.1-8.1,0.1-8.1"/>
<line x1="7.8" y1="16.7" x2="7.8" y2="26.3"/>
</g>
<g transform="scale(0.45) translate(43.5,15)" stroke-width="1.667">
<desc>spoon</desc>
<path d="M41.8,21.3c0-5.1-2.6-9.2-5.8-9.2s-5.8,4.1-5.8,9.2c0,4.7,1.4,8.6,4.3,9.1l0,0l-0.8,28.4c0,1.1,0.9,2,2,2s2-0.9,2-2l0-28.4l0,0C40.5,29.9,41.8,26,41.8,21.3z"/>
</g>
<g transform="scale(0.5) translate(8,63) rotate(-90,36,36)" stroke-width="1.5">
<desc>knife</desc>
<path d="M66.1,26.3c0-5.9-5.1-12.2-5.1-10.3s0.9,26.6,0.9,26.6L61,58.8c0,1.1,0.9,2,2,2s2-0.9,2-2l-0.5-16.3C64.5,42.5,66.1,32.2,66.1,26.3z"/>
</g>
<g transform="scale(0.40) translate(70,75) rotate(42.5,15,20)" stroke-width="1.875">
<desc>chopstick at left</desc>
<path d="M53.3,59L18.4,20.3c-0.8-0.8-2-0.8-2.8,0c-0.8,0.8-0.8,2,0,2.8L53.3,59"/>
</g>
<g transform="scale(0.40) translate(78,75) rotate(47.5,15,20)" stroke-width="1.875">
<desc>chopstick at right</desc>
<path d="M53.3,59L18.4,20.3c-0.8-0.8-2-0.8-2.8,0c-0.8,0.8-0.8,2,0,2.8L53.3,59"/>
</g>
</g>
</defs>
<use x="0" y="0" xlink:href="#four"/>
<g transform="translate(36,0)">
<desc>plate</desc>
<circle cx="36" cy="36" r="24" fill="#f1f1f1" stroke="none"/>
<path d="M 36,12 l 0,48 M 36,36 l 24,0 M 36,44 l -22.6274,0" stroke="#cccccc" stroke-width="0.5"/>
<circle cx="36" cy="36" r="24" stroke-width="0.75"/>
</g>
<use x="96" y="0" xlink:href="#four"/>
</svg>
